# xmcd
#
# Track frame offsets:
#	183
#	2508
#	15595
#	29458
#	40870
#	58458
#	72658
#	86778
#	97395
#	113795
#	138458
#	151445
#	162433
#	183583
#	196458
#	206483
#	218020
#	231208
#	244895
#	254970
#	266508
#	288208
#
# Disc length: 4112 seconds
#
# Revision: 0
# Processed by: cddbd v1.5.1PL0 Copyright (c) Steve Scherf et al.
# Submitted via: dBpowerAMP V4.0
#
DISCID=53100e16
DTITLE=Eddy Mitchell - Au palais des Sports
DYEAR=1978
DGENRE=Folk/Rock
TTITLE0=Twenty century fox
TTITLE1=Caldonia
TTITLE2=Fauché
TTITLE3=C'est facile
TTITLE4=J'avais deux amis
TTITLE5=Société anonyme
TTITLE6=Je vais craquer bientôt
TTITLE7=Choo choo boogie, espion bidon
TTITLE8=Toujours un coin qui me rappelle
TTITLE9=Pas de boogie-woogie
TTITLE10=Sirop rock'n roll
TTITLE11=Mon Flash back
TTITLE12=A crédit et en stéréo
TTITLE13=La fille du motel
TTITLE14=Sens unique
TTITLE15=C'est un piège
TTITLE16=Et la voix d'Elvis
TTITLE17=Sur la route de Memphis
TTITLE18=Bye bye Johnny B. Goode
TTITLE19=C'est la vie mon chéri
TTITLE20=C'est un rocker
TTITLE21=Be bop a lula
EXTD=
EXTT0=
EXTT1=
EXTT2=
EXTT3=
EXTT4=
EXTT5=
EXTT6=
EXTT7=
EXTT8=
EXTT9=
EXTT10=
EXTT11=
EXTT12=
EXTT13=
EXTT14=
EXTT15=
EXTT16=
EXTT17=
EXTT18=
EXTT19=
EXTT20=
EXTT21=
PLAYORDER=
